<?xml version="1.0" standalone="no"?>
<!DOCTYPE svg PUBLIC "-//W3C//DTD SVG 20010904//EN"
 "http://www.w3.org/TR/2001/REC-SVG-20010904/DTD/svg10.dtd">
<svg version="1.0" xmlns="http://www.w3.org/2000/svg"
 width="1024.000000pt" height="1024.000000pt" viewBox="0 0 1024.000000 1024.000000"
 preserveAspectRatio="xMidYMid meet">
<metadata>
Created by potrace 1.14, written by Peter Selinger 2001-2017
</metadata>
<g transform="translate(0.000000,1024.000000) scale(0.100000,-0.100000)"
fill="#000000" stroke="none">
<path d="M4845 10234 c-1294 -84 -2450 -601 -3344 -1495 -691 -691 -1172
-1568 -1380 -2515 -86 -393 -115 -674 -115 -1104 0 -350 13 -527 60 -815 232
-1413 1027 -2651 2209 -3440 708 -472 1484 -750 2350 -841 238 -25 752 -25
990 0 1206 127 2283 636 3124 1477 691 691 1172 1568 1380 2515 86 393 115
674 115 1104 0 350 -13 527 -60 815 -232 1413 -1027 2651 -2209 3440 -706 471
-1493 753 -2345 840 -147 16 -643 27 -775 19z m2275 -2448 l341 -330 -668
-668 -668 -668 668 -668 668 -668 -341 -330 c-187 -181 -347 -329 -354 -329
-14 0 -1981 1981 -1981 1995 0 14 1970 2000 1982 1997 7 -1 166 -150 353 -331z
m-2648 -2665 c541 -547 983 -997 983 -1001 0 -14 -1967 -1995 -1981 -1995 -7
0 -167 148 -354 329 l-341 330 668 668 668 668 -668 668 -668 668 343 332
c189 183 348 331 355 330 6 -2 454 -450 995 -997z"/>
</g>
</svg>
